<svg width="25" height="25" viewBox="0 0 25 25" fill="none" xmlns="http://www.w3.org/2000/svg">
<path fill-rule="evenodd" clip-rule="evenodd" d="M13.583 19.563C13.139 20.007 12.74 20.406 12.373 20.75H21.5C21.6989 20.75 21.8897 20.829 22.0303 20.9697C22.171 21.1103 22.25 21.3011 22.25 21.5C22.25 21.6989 22.171 21.8897 22.0303 22.0303C21.8897 22.171 21.6989 22.25 21.5 22.25H9.5C9.482 22.25 9.463 22.25 9.445 22.248C8.742 22.221 8.145 21.917 7.559 21.47C6.971 21.022 6.315 20.366 5.513 19.563L5.437 19.487C4.634 18.685 3.978 18.029 3.53 17.441C3.062 16.827 2.75 16.201 2.75 15.452C2.75 14.704 3.062 14.077 3.53 13.463C3.978 12.876 4.634 12.22 5.437 11.417L11.417 5.437C12.22 4.634 12.876 3.978 13.463 3.53C14.077 3.062 14.703 2.75 15.453 2.75C16.201 2.75 16.827 3.062 17.441 3.53C18.029 3.978 18.685 4.634 19.487 5.437L19.563 5.513C20.366 6.315 21.022 6.971 21.47 7.559C21.938 8.173 22.25 8.799 22.25 9.548C22.25 10.296 21.938 10.923 21.47 11.537C21.022 12.124 20.366 12.78 19.563 13.583L13.583 19.563ZM12.44 6.535C13.29 5.685 13.875 5.102 14.373 4.723C14.853 4.356 15.163 4.25 15.453 4.25C15.741 4.25 16.051 4.356 16.532 4.723C17.029 5.103 17.615 5.685 18.465 6.535C19.315 7.385 19.898 7.971 20.278 8.468C20.644 8.949 20.75 9.258 20.75 9.548C20.75 9.837 20.644 10.147 20.277 10.627C19.897 11.125 19.315 11.71 18.465 12.56L14.271 16.753L8.247 10.729L12.44 6.535ZM9.548 20.75C9.837 20.75 10.147 20.644 10.627 20.277C11.125 19.897 11.71 19.315 12.56 18.465L13.21 17.814L7.186 11.789L6.536 12.439C5.686 13.289 5.102 13.875 4.723 14.373C4.356 14.853 4.25 15.163 4.25 15.453C4.25 15.741 4.356 16.051 4.723 16.532C5.103 17.029 5.685 17.615 6.535 18.465C7.385 19.315 7.971 19.898 8.468 20.278C8.949 20.644 9.258 20.75 9.548 20.75Z" fill="#00974E"/>
</svg>
