<svg width="32" height="32" viewBox="0 0 32 32" fill="none" xmlns="http://www.w3.org/2000/svg">
<path d="M13.8265 17.1163C13.6697 16.9702 13.5453 16.7964 13.4603 16.6049C13.3754 16.4134 13.3317 16.208 13.3317 16.0006C13.3317 15.7932 13.3754 15.5878 13.4603 15.3963C13.5453 15.2048 13.6697 15.031 13.8265 14.885L21.5052 7.68823C21.662 7.54216 21.7864 7.36837 21.8713 7.17688C21.9563 6.9854 22 6.78002 22 6.57258C22 6.36515 21.9563 6.15977 21.8713 5.96828C21.7864 5.7768 21.662 5.60301 21.5052 5.45693C21.1917 5.16427 20.7677 5 20.3258 5C19.8838 5 19.4598 5.16427 19.1464 5.45693L11.4677 12.6694C10.5279 13.5533 10 14.7514 10 16.0006C10 17.2498 10.5279 18.448 11.4677 19.3318L19.1464 26.5443C19.458 26.8346 19.8785 26.9982 20.3174 27C20.5376 27.0012 20.7558 26.9615 20.9596 26.8833C21.1635 26.8051 21.3488 26.6899 21.5052 26.5443C21.662 26.3982 21.7864 26.2244 21.8713 26.0329C21.9563 25.8415 22 25.6361 22 25.4286C22 25.2212 21.9563 25.0158 21.8713 24.8243C21.7864 24.6329 21.662 24.4591 21.5052 24.313L13.8265 17.1163Z" fill="white"/>
</svg>
