<svg width="24" height="24" viewBox="0 0 24 24" fill="none" xmlns="http://www.w3.org/2000/svg">
<rect width="24" height="24" rx="12" fill="#FAFAFB"/>
<path d="M17.875 7.5H15.9375C15.7924 6.79463 15.4086 6.16084 14.8508 5.70545C14.2929 5.25006 13.5951 5.00091 12.875 5L11.625 5C10.9049 5.00091 10.2071 5.25006 9.64922 5.70545C9.09136 6.16084 8.70756 6.79463 8.5625 7.5H6.625C6.45924 7.5 6.30027 7.56585 6.18306 7.68306C6.06585 7.80027 6 7.95924 6 8.125C6 8.29076 6.06585 8.44973 6.18306 8.56694C6.30027 8.68415 6.45924 8.75 6.625 8.75H7.25V16.875C7.25099 17.7035 7.58055 18.4978 8.16639 19.0836C8.75222 19.6694 9.5465 19.999 10.375 20H14.125C14.9535 19.999 15.7478 19.6694 16.3336 19.0836C16.9194 18.4978 17.249 17.7035 17.25 16.875V8.75H17.875C18.0408 8.75 18.1997 8.68415 18.3169 8.56694C18.4341 8.44973 18.5 8.29076 18.5 8.125C18.5 7.95924 18.4341 7.80027 18.3169 7.68306C18.1997 7.56585 18.0408 7.5 17.875 7.5ZM11.625 6.25H12.875C13.2627 6.25047 13.6407 6.37086 13.9573 6.59465C14.2738 6.81844 14.5134 7.13468 14.6431 7.5H9.85687C9.98661 7.13468 10.2262 6.81844 10.5427 6.59465C10.8593 6.37086 11.2373 6.25047 11.625 6.25ZM16 16.875C16 17.3723 15.8025 17.8492 15.4508 18.2008C15.0992 18.5525 14.6223 18.75 14.125 18.75H10.375C9.87772 18.75 9.4008 18.5525 9.04917 18.2008C8.69754 17.8492 8.5 17.3723 8.5 16.875V8.75H16V16.875Z" fill="#272727"/>
<path d="M11.0002 16.2496C11.166 16.2496 11.325 16.1838 11.4422 16.0666C11.5594 15.9494 11.6252 15.7904 11.6252 15.6246V11.8746C11.6252 11.7089 11.5594 11.5499 11.4422 11.4327C11.325 11.3155 11.166 11.2496 11.0002 11.2496C10.8345 11.2496 10.6755 11.3155 10.5583 11.4327C10.4411 11.5499 10.3752 11.7089 10.3752 11.8746V15.6246C10.3752 15.7904 10.4411 15.9494 10.5583 16.0666C10.6755 16.1838 10.8345 16.2496 11.0002 16.2496Z" fill="#272727"/>
<path d="M13.4995 16.2496C13.6653 16.2496 13.8242 16.1838 13.9415 16.0666C14.0587 15.9494 14.1245 15.7904 14.1245 15.6246V11.8746C14.1245 11.7089 14.0587 11.5499 13.9415 11.4327C13.8242 11.3155 13.6653 11.2496 13.4995 11.2496C13.3338 11.2496 13.1748 11.3155 13.0576 11.4327C12.9404 11.5499 12.8745 11.7089 12.8745 11.8746V15.6246C12.8745 15.7904 12.9404 15.9494 13.0576 16.0666C13.1748 16.1838 13.3338 16.2496 13.4995 16.2496Z" fill="#272727"/>
</svg>
