<svg width="25" height="25" viewBox="0 0 25 25" fill="none" xmlns="http://www.w3.org/2000/svg">
<g clip-path="url(#clip0_303_8185)">
<path d="M14.4132 7.92668H5.7465L9.45317 4.26668C9.57959 4.14026 9.65061 3.9688 9.65061 3.79001C9.65061 3.61123 9.57959 3.43977 9.45317 3.31335C9.32675 3.18693 9.15529 3.11591 8.9765 3.11591C8.79772 3.11591 8.62626 3.18693 8.49984 3.31335L3.1665 8.58668L8.49984 13.8333C8.62537 13.958 8.79528 14.0277 8.97219 14.0271C9.1491 14.0264 9.31852 13.9556 9.44317 13.83C9.56782 13.7045 9.6375 13.5346 9.63687 13.3577C9.63625 13.1807 9.56537 13.0113 9.43984 12.8867L5.73984 9.26001H14.4065C16.0085 9.25113 17.5487 9.87766 18.6896 11.0023C19.8305 12.127 20.4791 13.658 20.4932 15.26C20.4855 16.3704 20.1698 17.4568 19.5813 18.3984C18.9928 19.34 18.1545 20.0999 17.1598 20.5933C16.9954 20.6764 16.8707 20.8215 16.8132 20.9965C16.7847 21.0832 16.7736 21.1746 16.7805 21.2656C16.7873 21.3565 16.812 21.4453 16.8532 21.5267C16.8943 21.6081 16.9511 21.6806 17.0203 21.7401C17.0894 21.7996 17.1697 21.8448 17.2563 21.8733C17.4314 21.9308 17.6221 21.9164 17.7865 21.8333C19.2646 21.0875 20.4468 19.8634 21.1408 18.3602C21.8348 16.8571 21.9997 15.1633 21.6087 13.5545C21.2177 11.9457 20.2938 10.5166 18.9873 9.49958C17.6809 8.4826 16.0687 7.93763 14.4132 7.95335V7.92668Z" fill="#00974E"/>
</g>
<defs>
<clipPath id="clip0_303_8185">
<rect width="24" height="24" fill="white" transform="translate(0.5 0.5)"/>
</clipPath>
</defs>
</svg>
