<svg width="32" height="32" viewBox="0 0 32 32" fill="none" xmlns="http://www.w3.org/2000/svg">
<path d="M27.2468 9.24684L22.7532 4.75316C22.2709 4.27092 21.6169 4 20.9349 4H6.57143C5.15125 4 4 5.15125 4 6.57143V25.4286C4 26.8488 5.15125 28 6.57143 28H25.4286C26.8488 28 28 26.8488 28 25.4286V11.0651C28 10.3831 27.7291 9.72907 27.2468 9.24684ZM18.5714 6.57143V10.8571H11.7143V6.57143H18.5714ZM25.1071 25.4286H6.89286C6.80761 25.4286 6.72585 25.3947 6.66557 25.3344C6.60529 25.2741 6.57143 25.1924 6.57143 25.1071V6.89286C6.57143 6.80761 6.60529 6.72585 6.66557 6.66557C6.72585 6.60529 6.80761 6.57143 6.89286 6.57143H9.14286V12.1429C9.14286 12.8529 9.71848 13.4286 10.4286 13.4286H19.8571C20.5672 13.4286 21.1429 12.8529 21.1429 12.1429V6.77939L25.3344 10.971C25.3643 11.0008 25.388 11.0363 25.4041 11.0753C25.4203 11.1143 25.4286 11.1561 25.4286 11.1983V25.1071C25.4286 25.1924 25.3947 25.2741 25.3344 25.3344C25.2741 25.3947 25.1924 25.4286 25.1071 25.4286ZM16 14.7143C13.4006 14.7143 11.2857 16.8291 11.2857 19.4286C11.2857 22.028 13.4006 24.1429 16 24.1429C18.5994 24.1429 20.7143 22.028 20.7143 19.4286C20.7143 16.8291 18.5994 14.7143 16 14.7143ZM16 21.5714C14.8184 21.5714 13.8571 20.6101 13.8571 19.4286C13.8571 18.247 14.8184 17.2857 16 17.2857C17.1816 17.2857 18.1429 18.247 18.1429 19.4286C18.1429 20.6101 17.1816 21.5714 16 21.5714Z" fill="white"/>
</svg>
