<svg width="24" height="25" viewBox="0 0 24 25" fill="none" xmlns="http://www.w3.org/2000/svg">
<g clip-path="url(#clip0_259_4493)">
<path d="M16.213 8.55141C16.6258 8.45243 17.0568 8.4 17.5 8.4C20.5375 8.4 23 10.8625 23 13.9C23 16.9375 20.5375 19.4 17.5 19.4H5.4C2.96995 19.4 1 17.43 1 15C1 12.9362 2.42085 11.2043 4.33769 10.7291M16.213 8.55141C15.5462 5.93495 13.174 4 10.35 4C7.00867 4 4.3 6.70867 4.3 10.05C4.3 10.2796 4.31279 10.5062 4.33769 10.7291M16.213 8.55141L14.75 8.95M4.33769 10.7291C4.33769 10.7291 4.50625 11.7 4.85 12.25" stroke="#272727" stroke-width="2.1" stroke-linecap="round" stroke-linejoin="round"/>
</g>
<defs>
<clipPath id="clip0_259_4493">
<rect width="24" height="24" fill="white" transform="translate(0 0.5)"/>
</clipPath>
</defs>
</svg>
