<svg width="25" height="25" viewBox="0 0 25 25" fill="none" xmlns="http://www.w3.org/2000/svg">
<path d="M6.56929 23.085H4.69833C4.58782 23.0931 4.45891 23.0978 4.32896 23.0978C3.60073 23.0978 2.90656 22.952 2.27397 22.6881L2.30927 22.7012C1.52432 22.2776 1 21.4612 1 20.5223C1 20.4398 1.00405 20.3583 1.01194 20.278L1.01112 20.2881C1.2177 18.9486 1.66129 17.746 2.30004 16.673L2.27472 16.7189C3.32439 14.8001 4.45561 13.831 5.63284 13.831C6.81007 13.831 7.94321 14.8077 8.99094 16.7343C9.60038 17.756 10.0431 18.9516 10.2461 20.2271L10.2536 20.2843C10.2607 20.3546 10.2648 20.4363 10.2648 20.519C10.2648 21.4567 9.74167 22.2724 8.97133 22.6899L8.95831 22.6964C8.35825 22.9498 7.66062 23.0971 6.92858 23.0971C6.80214 23.0971 6.67674 23.0927 6.55252 23.084L6.56925 23.0849L6.56929 23.085ZM5.63573 21.1613H6.56929C6.65851 21.1682 6.76238 21.1721 6.86724 21.1721C7.3042 21.1721 7.72516 21.1036 8.11996 20.9767L8.091 20.9847C8.17828 20.9406 8.34047 20.8581 8.34141 20.2882C8.10624 19.2722 7.74275 18.3756 7.26149 17.5565L7.28601 17.6017C6.44647 16.0829 5.80846 15.75 5.63575 15.75C5.3815 15.75 4.72999 16.2431 3.9778 17.6036C3.51943 18.3776 3.15803 19.2749 2.94201 20.2275L2.93007 20.2901C2.93007 20.8601 3.0932 20.9426 3.18048 20.9876C3.54632 21.1065 3.96728 21.1751 4.40424 21.1751C4.50908 21.1751 4.61302 21.1711 4.71586 21.1634L4.70217 21.1642H5.14255L5.63573 21.1613ZM16.3625 9.92698C18.5223 10.0488 20.492 10.7714 22.1331 11.9288L22.0981 11.9054C22.6336 12.3823 22.9762 13.0659 22.9999 13.8298L23 13.8339C22.9866 15.0131 22.0626 15.8958 21.0811 16.8293L20.7875 17.1114C20.6292 17.264 20.4728 17.4203 20.3222 17.571C19.4126 18.4806 18.5539 19.3393 17.4083 19.3393C16.6783 19.3117 16.0281 18.9913 15.5678 18.4929L15.5661 18.4911L15.5517 18.4767C14.8442 17.5079 14.291 16.3741 13.9576 15.1497L13.9408 15.0773C13.32 12.9723 13.4285 11.4823 14.2622 10.6485C14.7651 10.1966 15.4336 9.92027 16.1667 9.92027C16.2356 9.92027 16.3039 9.92271 16.3716 9.92752L16.3624 9.927L16.3625 9.92698ZM20.7453 13.2668C19.4917 12.4935 17.9989 11.9828 16.3991 11.8484L16.3625 11.8459C16.323 11.8413 16.2773 11.8386 16.2309 11.8386C16.0063 11.8386 15.7961 11.9005 15.6164 12.0082L15.6218 12.0051C15.499 12.128 15.286 12.813 15.7696 14.4844C16.0441 15.4887 16.4379 16.368 16.9446 17.1688L16.9209 17.1286C17.0475 17.2696 17.2151 17.3714 17.405 17.4153L17.4112 17.4165C17.7614 17.4165 18.4033 16.7755 18.9684 16.2104C19.1248 16.054 19.2869 15.8919 19.4568 15.7307L19.759 15.4428C20.3769 14.8528 21.0763 14.184 21.0811 13.8118C21.0831 13.6333 20.872 13.3954 20.7444 13.2658L20.7453 13.2668ZM8.35771 1.01265H10.2459C10.3567 1.00459 10.4859 1 10.6162 1C11.35 1 12.0498 1.14568 12.6882 1.40963L12.6522 1.39648C13.4445 1.81734 13.9748 2.63733 13.9748 3.58123C13.9748 3.66329 13.9708 3.74441 13.9629 3.8244L13.9638 3.81428C13.7572 5.15205 13.314 6.35307 12.6758 7.42449L12.7011 7.37863C11.6534 9.29178 10.5251 10.257 9.34784 10.257C8.17059 10.257 7.03937 9.28795 5.97054 7.3671C5.34823 6.34614 4.89474 5.15009 4.68411 3.87218L4.67622 3.81425C4.66911 3.74394 4.66506 3.66228 4.66506 3.5797C4.66506 2.64334 5.18593 1.82867 5.95377 1.40959L5.9667 1.40312C6.56675 1.14844 7.26461 1.00041 7.99704 1.00041C8.12393 1.00041 8.24978 1.00485 8.37445 1.0136L8.35764 1.01265H8.35771ZM9.30088 2.94119H8.35676C6.60002 2.94119 6.59427 3.16087 6.59427 3.81236C6.8408 4.82565 7.21311 5.71784 7.70189 6.53207L7.67754 6.48828C8.53623 8.00995 9.17522 8.3429 9.34889 8.3429C9.52256 8.3429 10.1596 8.01094 10.9982 6.49406C11.4561 5.72094 11.8172 4.82455 12.033 3.87302L12.045 3.81046C12.045 3.24246 11.8867 3.16283 11.7917 3.11486C11.4198 2.99476 10.9919 2.92554 10.5478 2.92554C10.4419 2.92554 10.337 2.92949 10.2331 2.93718L10.247 2.93638H9.8008L9.30088 2.94119Z" fill="#272727"/>
</svg>
