<svg width="24" height="24" viewBox="0 0 24 24" fill="none" xmlns="http://www.w3.org/2000/svg">
<path d="M6 3L9.5 6.5M13 10L9.5 6.5M9.5 6.5L11.2929 4.70711C11.6834 4.31658 12.3166 4.31658 12.7071 4.70711L18.7735 10.7735C19.1715 11.1715 19.1628 11.8195 18.7542 12.2066L10.7066 19.8306C10.3133 20.2032 9.69483 20.1948 9.31175 19.8117L3.6814 14.1814C3.30106 13.8011 3.28971 13.188 3.65572 12.7938L9.5 6.5Z" stroke="#272727" stroke-width="1.5" stroke-linecap="round"/>
<path d="M20.865 17.3207C20.7959 17.2217 20.7039 17.1408 20.5968 17.085C20.4897 17.0292 20.3708 17 20.25 17C20.1292 17 20.0103 17.0292 19.9032 17.085C19.7961 17.1408 19.7041 17.2217 19.635 17.3207C19.14 18.0332 18 19.7882 18 20.7482C18 21.345 18.2371 21.9173 18.659 22.3392C19.081 22.7612 19.6533 22.9982 20.25 22.9982C20.8467 22.9982 21.419 22.7612 21.841 22.3392C22.2629 21.9173 22.5 21.345 22.5 20.7482C22.5 19.7882 21.36 18.0332 20.865 17.3207ZM20.25 21.4982C20.0511 21.4982 19.8603 21.4192 19.7197 21.2786C19.579 21.1379 19.5 20.9471 19.5 20.7482C19.6627 20.1743 19.9159 19.6299 20.25 19.1357C20.5855 19.6292 20.8388 20.1737 21 20.7482C21 20.9471 20.921 21.1379 20.7803 21.2786C20.6397 21.4192 20.4489 21.4982 20.25 21.4982Z" fill="#272727"/>
</svg>
