<svg width="32" height="32" viewBox="0 0 32 32" fill="none" xmlns="http://www.w3.org/2000/svg">
<path d="M27.9167 16.6617C27.6028 16.6617 27.3018 16.7864 27.0799 17.0083C26.858 17.2302 26.7333 17.5312 26.7333 17.845V22.1784C26.7333 22.4392 26.6297 22.6893 26.4453 22.8737C26.2609 23.0581 26.0108 23.1617 25.75 23.1617H6.25C5.9892 23.1617 5.73909 23.0581 5.55468 22.8737C5.37027 22.6893 5.26667 22.4392 5.26667 22.1784V17.845C5.26667 17.5312 5.14199 17.2302 4.92008 17.0083C4.69816 16.7864 4.39717 16.6617 4.08333 16.6617C3.76949 16.6617 3.46851 16.7864 3.24659 17.0083C3.02467 17.2302 2.9 17.5312 2.9 17.845V22.1784C2.9 23.0668 3.25295 23.9189 3.88119 24.5472C4.50944 25.1754 5.36153 25.5284 6.25 25.5284H25.75C26.6385 25.5284 27.4906 25.1754 28.1188 24.5472C28.7471 23.9189 29.1 23.0668 29.1 22.1784V17.845C29.1 17.5312 28.9753 17.2302 28.7534 17.0083C28.5315 16.7864 28.2305 16.6617 27.9167 16.6617Z" fill="#FAFAFB" stroke="white" stroke-width="0.2"/>
<path d="M17.271 17.9829L20.2699 14.9829L20.2733 14.9795L20.2734 14.9796C20.4983 14.7754 20.7931 14.6655 21.0968 14.6726C21.4004 14.6798 21.6897 14.8034 21.9048 15.018C22.1198 15.2326 22.244 15.5216 22.2518 15.8253C22.2596 16.1289 22.1504 16.4239 21.9466 16.6493L21.9433 16.653L21.9432 16.6529L18.4646 20.1315C18.4646 20.1315 18.4646 20.1315 18.4646 20.1315C18.1535 20.4428 17.7841 20.6897 17.3775 20.8582C16.971 21.0267 16.5352 21.1134 16.0951 21.1134C15.6549 21.1134 15.2191 21.0267 14.8126 20.8582C14.406 20.6897 14.0366 20.4428 13.7255 20.1315C13.7255 20.1315 13.7255 20.1315 13.7255 20.1315L10.247 16.6573L10.247 16.6573C10.0249 16.4354 9.90011 16.1344 9.9 15.8205C9.89989 15.5066 10.0245 15.2055 10.2464 14.9835C10.4682 14.7614 10.7692 14.6366 11.0831 14.6365C11.397 14.6364 11.6981 14.761 11.9202 14.9829L11.8495 15.0536L11.9202 14.9829L14.9022 17.9629L14.9117 7.08333L17.271 17.9829ZM17.271 17.9829L17.2784 7.0834V7.08333C17.2784 6.76949 17.1537 6.46851 16.9318 6.24659C16.7099 6.02467 16.4089 5.9 16.0951 5.9C15.7812 5.9 15.4802 6.02467 15.2583 6.24659C15.0364 6.46849 14.9117 6.76944 14.9117 7.08325L17.271 17.9829Z" fill="#FAFAFB" stroke="white" stroke-width="0.2"/>
</svg>
