<svg width="25" height="25" viewBox="0 0 25 25" fill="none" xmlns="http://www.w3.org/2000/svg">
<path d="M21.4519 3.54703C20.7809 2.87604 19.8708 2.49908 18.9219 2.49908C17.9729 2.49908 17.0629 2.87604 16.3919 3.54703L4.43987 15.5C4.03366 15.9063 3.74808 16.4172 3.61487 16.976L2.51987 21.577C2.49022 21.7017 2.493 21.8318 2.52794 21.9551C2.56288 22.0784 2.62883 22.1907 2.71948 22.2812C2.81013 22.3717 2.92246 22.4376 3.04577 22.4724C3.16908 22.5072 3.29925 22.5098 3.42387 22.48L8.02487 21.384C8.58405 21.251 9.09536 20.9654 9.50187 20.559L19.4999 10.56C19.8258 10.8888 20.0081 11.3333 20.007 11.7963C20.0059 12.2592 19.8214 12.7028 19.4939 13.03L17.7109 14.814C17.6372 14.8827 17.5781 14.9655 17.5371 15.0575C17.4961 15.1495 17.4741 15.2488 17.4723 15.3495C17.4705 15.4502 17.489 15.5502 17.5267 15.6436C17.5645 15.737 17.6206 15.8218 17.6918 15.8931C17.763 15.9643 17.8479 16.0204 17.9413 16.0582C18.0347 16.0959 18.1347 16.1144 18.2354 16.1126C18.3361 16.1108 18.4354 16.0888 18.5274 16.0478C18.6194 16.0068 18.7022 15.9477 18.7709 15.874L20.5549 14.091C21.1634 13.4824 21.5057 12.6572 21.5067 11.7966C21.5076 10.9359 21.1671 10.11 20.5599 9.50003L21.4519 8.60803C22.1229 7.93703 22.4998 7.02696 22.4998 6.07803C22.4998 5.1291 22.1229 4.21903 21.4519 3.54803V3.54703ZM17.4519 4.60703C17.6449 4.41399 17.8741 4.26086 18.1263 4.15638C18.3785 4.05191 18.6489 3.99813 18.9219 3.99813C19.1949 3.99813 19.4652 4.05191 19.7174 4.15638C19.9696 4.26085 20.1988 4.41399 20.3919 4.60703C20.5849 4.80007 20.738 5.02925 20.8425 5.28147C20.947 5.53369 21.0008 5.80402 21.0008 6.07703C21.0008 6.35003 20.947 6.62036 20.8425 6.87259C20.738 7.12481 20.5849 7.35399 20.3919 7.54703L8.44087 19.499C8.22987 19.709 7.96587 19.856 7.67687 19.925L4.26087 20.738L5.07387 17.323C5.14287 17.033 5.29087 16.769 5.50087 16.559L17.4509 4.60803L17.4519 4.60703Z" fill="#272727"/>
</svg>
