<svg width="24" height="24" viewBox="0 0 24 24" fill="none" xmlns="http://www.w3.org/2000/svg">
<rect width="24" height="24" rx="12" fill="#FAFAFB"/>
<path d="M10.7621 15.5712C10.9247 15.7339 11.1176 15.8629 11.33 15.9509C11.5424 16.0389 11.7701 16.0842 12 16.0842C12.2299 16.0842 12.4576 16.0389 12.6699 15.9509C12.8823 15.8629 13.0753 15.7339 13.2378 15.5712L15.1109 13.6981C15.2114 13.5871 15.2652 13.4416 15.2614 13.2919C15.2575 13.1422 15.1963 12.9998 15.0903 12.894C14.9843 12.7882 14.8417 12.7273 14.692 12.7237C14.5423 12.7202 14.3969 12.7744 14.2861 12.8751L12.5792 14.5825L12.5833 5.58334C12.5833 5.42863 12.5219 5.28025 12.4125 5.17086C12.3031 5.06146 12.1547 5 12 5V5C11.8453 5 11.6969 5.06146 11.5875 5.17086C11.4781 5.28025 11.4167 5.42863 11.4167 5.58334L11.4114 14.5714L9.71389 12.8751C9.60443 12.7657 9.45601 12.7043 9.30127 12.7043C9.14652 12.7044 8.99814 12.7659 8.88876 12.8753C8.77938 12.9848 8.71796 13.1332 8.71802 13.288C8.71807 13.4427 8.7796 13.5911 8.88905 13.7005L10.7621 15.5712Z" fill="#272727"/>
<path d="M18.4168 14.3333C18.262 14.3333 18.1137 14.3947 18.0043 14.5041C17.8949 14.6135 17.8334 14.7619 17.8334 14.9166V17.2499C17.8334 17.4046 17.772 17.553 17.6626 17.6624C17.5532 17.7718 17.4048 17.8333 17.2501 17.8333H6.75001C6.5953 17.8333 6.44693 17.7718 6.33753 17.6624C6.22813 17.553 6.16667 17.4046 6.16667 17.2499V14.9166C6.16667 14.7619 6.10522 14.6135 5.99582 14.5041C5.88642 14.3947 5.73805 14.3333 5.58334 14.3333C5.42863 14.3333 5.28025 14.3947 5.17086 14.5041C5.06146 14.6135 5 14.7619 5 14.9166V17.2499C5 17.7141 5.18438 18.1592 5.51257 18.4874C5.84076 18.8156 6.28588 18.9999 6.75001 18.9999H17.2501C17.7142 18.9999 18.1593 18.8156 18.4875 18.4874C18.8157 18.1592 19.0001 17.7141 19.0001 17.2499V14.9166C19.0001 14.7619 18.9386 14.6135 18.8292 14.5041C18.7198 14.3947 18.5715 14.3333 18.4168 14.3333Z" fill="#272727"/>
</svg>
