<svg width="32" height="32" viewBox="0 0 32 32" fill="none" xmlns="http://www.w3.org/2000/svg">
<path d="M13.6913 5.39573C13.7632 4.60526 14.426 4 15.2196 4H16.7804C17.574 4 18.2368 4.60526 18.3087 5.39573C18.3677 6.0447 18.8348 6.57452 19.445 6.8032C19.6018 6.86199 19.7568 6.92469 19.9098 6.99116C20.5136 7.25355 21.2237 7.20326 21.7294 6.78182C22.3544 6.26104 23.2733 6.30273 23.8485 6.87795L24.9501 7.97948C25.4985 8.52791 25.5382 9.40406 25.0416 9.9999C24.6281 10.4962 24.5896 11.1969 24.8676 11.7801C24.988 12.0326 25.0979 12.2911 25.1968 12.555C25.4255 13.1652 25.9553 13.6323 26.6043 13.6913C27.3947 13.7632 28 14.426 28 15.2196V16.7804C28 17.574 27.3947 18.2368 26.6043 18.3087C25.9553 18.3677 25.4255 18.8348 25.1968 19.445C25.108 19.6818 25.0103 19.9144 24.9042 20.1422C24.6464 20.6956 24.6881 21.3564 25.079 21.8255C25.5544 22.396 25.5164 23.2349 24.9912 23.76L23.76 24.9912C23.2349 25.5164 22.396 25.5544 21.8255 25.079C21.3564 24.6881 20.6956 24.6464 20.1422 24.9042C19.9144 25.0103 19.6818 25.108 19.445 25.1968C18.8348 25.4255 18.3677 25.9553 18.3087 26.6043C18.2368 27.3947 17.574 28 16.7804 28H15.2196C14.426 28 13.7632 27.3947 13.6913 26.6043C13.6323 25.9553 13.1652 25.4255 12.555 25.1968C12.2911 25.0979 12.0326 24.988 11.7801 24.8676C11.197 24.5896 10.4962 24.6281 9.9999 25.0416C9.40406 25.5382 8.5279 25.4985 7.97946 24.9501L6.87795 23.8485C6.30272 23.2733 6.26104 22.3544 6.78182 21.7294C7.20327 21.2237 7.25355 20.5136 6.99116 19.9098C6.92469 19.7568 6.862 19.6019 6.8032 19.445C6.57453 18.8348 6.0447 18.3677 5.39573 18.3087C4.60526 18.2368 4 17.574 4 16.7804V15.2196C4 14.426 4.60526 13.7632 5.39573 13.6913C6.04472 13.6323 6.57453 13.1652 6.80321 12.555C6.87232 12.3706 6.94682 12.1888 7.02651 12.0099C7.30852 11.3766 7.26165 10.6271 6.81785 10.0945C6.27666 9.4451 6.31998 8.49015 6.91774 7.89238L7.89237 6.91775C8.49014 6.31998 9.44508 6.27666 10.0945 6.81786C10.6271 7.26166 11.3766 7.30852 12.0099 7.02651C12.1888 6.94682 12.3706 6.87232 12.555 6.80321C13.1652 6.57453 13.6323 6.04472 13.6913 5.39573Z" stroke="white" stroke-width="2.5" stroke-linecap="round" stroke-linejoin="round"/>
<path d="M19.6004 16.0005C19.6004 17.9888 17.9887 19.6005 16.0004 19.6005C14.0121 19.6005 12.4004 17.9888 12.4004 16.0005C12.4004 14.0122 14.0121 12.4005 16.0004 12.4005C17.9887 12.4005 19.6004 14.0122 19.6004 16.0005Z" stroke="white" stroke-width="2.5" stroke-linecap="round" stroke-linejoin="round"/>
</svg>
