<svg width="25" height="25" viewBox="0 0 25 25" fill="none" xmlns="http://www.w3.org/2000/svg">
<path d="M14.3791 3.95398L16.5001 6.07498M16.5001 6.07498L17.9131 4.66098C18.1006 4.47351 18.355 4.36819 18.6201 4.36819C18.8853 4.36819 19.1396 4.47351 19.3271 4.66098L20.0351 5.36798C20.2226 5.55551 20.3279 5.80982 20.3279 6.07498C20.3279 6.34014 20.2226 6.59445 20.0351 6.78198L18.6201 8.19698M16.5001 6.07498L18.6201 8.19698M20.7431 10.318L18.6201 8.19698M14.3791 8.19698L16.5001 10.317C16.5931 10.4099 16.6669 10.5201 16.7172 10.6415C16.7675 10.7629 16.7934 10.8931 16.7934 11.0245C16.7934 11.1559 16.7675 11.286 16.7172 11.4074C16.6669 11.5288 16.5931 11.6391 16.5001 11.732L8.86312 19.37C8.76989 19.4634 8.65909 19.5375 8.53712 19.588L6.04012 20.614C4.80712 21.122 3.57412 19.889 4.08212 18.656L5.11012 16.16C5.16041 16.0376 5.23452 15.9265 5.32812 15.833L12.9641 8.19698C13.057 8.104 13.1673 8.03024 13.2887 7.97992C13.4101 7.9296 13.5402 7.90369 13.6716 7.90369C13.803 7.90369 13.9332 7.9296 14.0546 7.97992C14.176 8.03024 14.2862 8.104 14.3791 8.19698Z" stroke="#00974E" stroke-width="1.5" stroke-linecap="round" stroke-linejoin="round"/>
</svg>
