<svg width="25" height="25" viewBox="0 0 25 25" fill="none" xmlns="http://www.w3.org/2000/svg">
<path d="M18.8421 1.9H5.15789C4.29385 1.9 3.46519 2.24324 2.85422 2.85422C2.24324 3.46519 1.9 4.29385 1.9 5.15789V18.8421C1.9 19.7062 2.24324 20.5348 2.85422 21.1458C3.46519 21.7568 4.29385 22.1 5.15789 22.1H18.8421C19.7062 22.1 20.5348 21.7568 21.1458 21.1458C21.7568 20.5348 22.1 19.7062 22.1 18.8421V5.15789C22.1 4.29385 21.7568 3.46519 21.1458 2.85422C20.5348 2.24324 19.7062 1.9 18.8421 1.9ZM3.73996 3.73996C4.11602 3.3639 4.62607 3.15263 5.15789 3.15263H8.21579V8.21579H3.15263V5.15789C3.15263 4.62607 3.3639 4.11602 3.73996 3.73996ZM3.73996 20.26C3.3639 19.884 3.15263 19.3739 3.15263 18.8421V15.7842H8.21579V20.8474H5.15789C4.62607 20.8474 4.11602 20.6361 3.73996 20.26ZM3.15263 14.5316V9.46842H8.21579V14.5316H3.15263ZM20.26 20.26C19.884 20.6361 19.3739 20.8474 18.8421 20.8474H15.7842V15.7842H20.8474V18.8421C20.8474 19.3739 20.6361 19.884 20.26 20.26ZM15.7842 9.46842H20.8474V14.5316H15.7842V9.46842ZM20.26 3.73996C20.6361 4.11602 20.8474 4.62607 20.8474 5.15789V8.21579H15.7842V3.15263H18.8421C19.3739 3.15263 19.884 3.3639 20.26 3.73996ZM14.5316 8.21579H9.46842V3.15263H14.5316V8.21579ZM14.5316 15.7842V20.8474H9.46842V15.7842H14.5316ZM9.46842 14.5316V9.46842H14.5316V14.5316H9.46842Z" fill="#272727" stroke="#272727" stroke-width="0.2"/>
</svg>
