<svg width="25" height="25" viewBox="0 0 25 25" fill="none" xmlns="http://www.w3.org/2000/svg">
<path d="M6.5 3.5L10 7M13.5 10.5L10 7M10 7L11.7929 5.20711C12.1834 4.81658 12.8166 4.81658 13.2071 5.20711L19.2735 11.2735C19.6715 11.6715 19.6628 12.3195 19.2542 12.7066L11.2066 20.3306C10.8133 20.7032 10.1948 20.6948 9.81175 20.3117L4.1814 14.6814C3.80106 14.3011 3.78971 13.688 4.15572 13.2938L10 7Z" stroke="#00974E" stroke-width="1.5" stroke-linecap="round"/>
<path d="M21.365 17.8207C21.2959 17.7217 21.2039 17.6408 21.0968 17.585C20.9897 17.5292 20.8708 17.5 20.75 17.5C20.6292 17.5 20.5103 17.5292 20.4032 17.585C20.2961 17.6408 20.2041 17.7217 20.135 17.8207C19.64 18.5332 18.5 20.2882 18.5 21.2482C18.5 21.845 18.7371 22.4173 19.159 22.8392C19.581 23.2612 20.1533 23.4982 20.75 23.4982C21.3467 23.4982 21.919 23.2612 22.341 22.8392C22.7629 22.4173 23 21.845 23 21.2482C23 20.2882 21.86 18.5332 21.365 17.8207ZM20.75 21.9982C20.5511 21.9982 20.3603 21.9192 20.2197 21.7786C20.079 21.6379 20 21.4471 20 21.2482C20.1627 20.6743 20.4159 20.1299 20.75 19.6357C21.0855 20.1292 21.3388 20.6737 21.5 21.2482C21.5 21.4471 21.421 21.6379 21.2803 21.7786C21.1397 21.9192 20.9489 21.9982 20.75 21.9982Z" fill="#00974E"/>
</svg>
