<svg width="20" height="20" viewBox="0 0 20 20" fill="none" xmlns="http://www.w3.org/2000/svg">
<g clip-path="url(#clip0_1009_4848)">
<path d="M15.0835 7V5C15.0835 2.2 12.8835 0 10.0835 0C7.2835 0 5.0835 2.2 5.0835 5V7C3.3835 7 2.0835 8.3 2.0835 10V17C2.0835 18.7 3.3835 20 5.0835 20H15.0835C16.7835 20 18.0835 18.7 18.0835 17V10C18.0835 8.3 16.7835 7 15.0835 7ZM7.0835 5C7.0835 3.3 8.3835 2 10.0835 2C11.7835 2 13.0835 3.3 13.0835 5V7H7.0835V5Z" fill="#FAFAFB"/>
</g>
<defs>
<clipPath id="clip0_1009_4848">
<rect width="20" height="20" fill="white"/>
</clipPath>
</defs>
</svg>
