<svg width="24" height="24" viewBox="0 0 24 24" fill="none" xmlns="http://www.w3.org/2000/svg">
<path d="M13.4001 11.2899C13.4938 11.3829 13.5682 11.4935 13.619 11.6154C13.6697 11.7372 13.6959 11.8679 13.6959 11.9999C13.6959 12.132 13.6697 12.2627 13.619 12.3845C13.5682 12.5064 13.4938 12.617 13.4001 12.7099L8.81008 17.2899C8.71635 17.3829 8.64196 17.4935 8.59119 17.6154C8.54042 17.7372 8.51428 17.8679 8.51428 17.9999C8.51428 18.132 8.54042 18.2627 8.59119 18.3845C8.64196 18.5064 8.71635 18.617 8.81008 18.7099C8.99744 18.8962 9.25089 19.0007 9.51508 19.0007C9.77926 19.0007 10.0327 18.8962 10.2201 18.7099L14.8101 14.1199C15.3719 13.5574 15.6874 12.7949 15.6874 11.9999C15.6874 11.2049 15.3719 10.4424 14.8101 9.87994L10.2201 5.28994C10.0338 5.1052 9.78242 5.00104 9.52008 4.99994C9.38847 4.99918 9.25801 5.0244 9.13617 5.07417C9.01433 5.12393 8.90352 5.19726 8.81008 5.28994C8.71635 5.3829 8.64195 5.4935 8.59119 5.61536C8.54042 5.73722 8.51428 5.86793 8.51428 5.99994C8.51428 6.13195 8.54042 6.26266 8.59119 6.38452C8.64195 6.50637 8.71635 6.61698 8.81008 6.70994L13.4001 11.2899Z" fill="#272727"/>
</svg>
