<svg width="24" height="24" viewBox="0 0 24 24" fill="none" xmlns="http://www.w3.org/2000/svg">
<g clip-path="url(#clip0_291_3676)">
<path d="M23.112 5.16488C23.3931 4.88397 23.616 4.55043 23.7681 4.18333C23.9202 3.81623 23.9985 3.42275 23.9985 3.02538C23.9985 2.62801 23.9202 2.23454 23.7681 1.86744C23.616 1.50033 23.3931 1.1668 23.112 0.885882C22.5363 0.335505 21.7705 0.0283508 20.974 0.0283508C20.1776 0.0283508 19.4118 0.335505 18.836 0.885882L16.4 3.32388C15.388 4.33688 13.277 4.11288 11.821 3.31088C11.2697 3.01239 10.629 2.9232 10.0171 3.05973C9.40514 3.19626 8.86315 3.54932 8.49095 4.05387C8.11875 4.55842 7.9414 5.18047 7.99158 5.80543C8.04176 6.4304 8.31609 7.01619 8.76403 7.45488L10.18 8.87088L2.02503 17.0249C1.48975 17.5545 1.14213 18.2444 1.03509 18.9898C0.928043 19.7351 1.06743 20.495 1.43203 21.1539L0.293031 22.2929C0.10556 22.4804 0.000244141 22.7347 0.000244141 22.9999C0.000244141 23.265 0.10556 23.5194 0.293031 23.7069C0.480558 23.8944 0.734866 23.9997 1.00003 23.9997C1.26519 23.9997 1.5195 23.8944 1.70703 23.7069L2.84603 22.5679C3.50487 22.9325 4.26478 23.0719 5.01012 22.9648C5.75547 22.8578 6.44544 22.5102 6.97503 21.9749L15.129 13.8199L16.545 15.2359C16.9837 15.6838 17.5695 15.9581 18.1945 16.0083C18.8194 16.0585 19.4415 15.8812 19.946 15.509C20.4506 15.1368 20.8037 14.5948 20.9402 13.9828C21.0767 13.3709 20.9875 12.7303 20.689 12.1789C19.889 10.7229 19.664 8.61088 20.676 7.59888L23.112 5.16488ZM5.56003 20.5609C5.2743 20.8336 4.89451 20.9857 4.49953 20.9857C4.10455 20.9857 3.72476 20.8336 3.43903 20.5609C3.15782 20.2796 2.99985 19.8981 2.99985 19.5004C2.99985 19.1026 3.15782 18.7212 3.43903 18.4399L11.594 10.2859L13.715 12.4069L5.56003 20.5609ZM19.26 6.18488C17.501 7.94388 17.76 11.0169 18.935 13.1429C18.9908 13.2538 19.0093 13.3798 18.9878 13.5021C18.9664 13.6244 18.9062 13.7365 18.816 13.8219C18.7004 13.9326 18.5466 13.9944 18.3865 13.9944C18.2265 13.9944 18.0726 13.9326 17.957 13.8219L10.178 6.04088C10.094 5.9554 10.0369 5.84711 10.0139 5.72946C9.99081 5.61181 10.0028 5.48998 10.0484 5.37911C10.094 5.26823 10.1711 5.17318 10.2703 5.10576C10.3694 5.03835 10.4862 5.00153 10.606 4.99988C10.6937 4.99948 10.78 5.02115 10.857 5.06288C12.983 6.23288 16.057 6.49688 17.815 4.73788L20.254 2.29988C20.4486 2.11347 20.7076 2.0094 20.977 2.0094C21.2465 2.0094 21.5055 2.11347 21.7 2.29988C21.7952 2.39499 21.8708 2.50792 21.9223 2.63224C21.9738 2.75655 22.0004 2.88981 22.0004 3.02438C22.0004 3.15896 21.9738 3.29221 21.9223 3.41653C21.8708 3.54084 21.7952 3.65378 21.7 3.74888L19.26 6.18488Z" fill="white"/>
</g>
<defs>
<clipPath id="clip0_291_3676">
<rect width="24" height="24" fill="white"/>
</clipPath>
</defs>
</svg>
