<svg width="32" height="32" viewBox="0 0 32 32" fill="none" xmlns="http://www.w3.org/2000/svg">
<path d="M20.5 10H20.5142" stroke="white" stroke-width="2.46553" stroke-linecap="round" stroke-linejoin="round"/>
<path d="M23.5 4H8.5C6.01472 4 4 6.01472 4 8.5V23.5C4 25.9853 6.01472 28 8.5 28H23.5C25.9853 28 28 25.9853 28 23.5V8.5C28 6.01472 25.9853 4 23.5 4Z" stroke="white" stroke-width="2.46553" stroke-linecap="round" stroke-linejoin="round"/>
<path d="M4 20.4999L10 14.4999C10.6841 13.8417 11.4601 13.4951 12.25 13.4951C13.0399 13.4951 13.8159 13.8417 14.5 14.4999L22 21.9999" stroke="white" stroke-width="2.46553" stroke-linecap="round" stroke-linejoin="round"/>
<path d="M19 18.9999L20.5 17.4999C21.1841 16.8417 21.9601 16.4951 22.75 16.4951C23.5399 16.4951 24.3159 16.8417 25 17.4999L28 20.4999" stroke="white" stroke-width="2.46553" stroke-linecap="round" stroke-linejoin="round"/>
</svg>
